<svg width="152" height="152" viewBox="0 0 152 152" fill="none" xmlns="http://www.w3.org/2000/svg">
<path d="M75.6225 10.0218C58.1004 10.0218 41.6269 16.8437 29.2371 29.2335C16.8473 41.6233 10.0233 58.0967 10.0233 75.6189C10.0233 93.1404 16.8473 109.614 29.2371 122.004C41.6269 134.393 58.1004 141.217 75.6225 141.217C93.144 141.217 109.617 134.393 122.007 122.004C134.397 109.614 141.22 93.1404 141.22 75.6189C141.22 58.0967 134.397 41.6233 122.007 29.2335C109.617 16.8437 93.144 10.0218 75.6225 10.0218ZM75.6225 151.241C65.4153 151.241 55.5113 149.241 46.1855 145.296C37.1797 141.487 29.0931 136.035 22.1491 129.092C15.2058 122.148 9.7542 114.061 5.94474 105.055C2.00002 95.7295 0 85.8255 0 75.6189C0 65.4124 2.00002 55.5084 5.94474 46.1818C9.7542 37.176 15.2058 29.0895 22.1491 22.1455C29.0931 15.2 37.1797 9.75277 46.1855 5.94186C55.5113 2.00005 65.4153 3.14226e-05 75.6225 3.14226e-05C85.8291 3.14226e-05 95.7331 2.00005 105.059 5.94186C114.065 9.75277 122.152 15.2 129.095 22.1455C136.039 29.0895 141.49 37.176 145.3 46.1818C149.244 55.5084 151.244 65.4124 151.244 75.6189C151.244 85.8255 149.244 95.7295 145.3 105.055C141.49 114.061 136.039 122.148 129.095 129.092C122.152 136.035 114.065 141.487 105.059 145.296C95.7331 149.241 85.8291 151.241 75.6225 151.241Z" fill="white"/>
<path d="M45.2734 112.065C43.2814 110.401 41.4211 108.498 39.696 106.364L23.701 123.303L30.9883 130.185L46.8916 113.343C46.3505 112.94 45.8109 112.515 45.2734 112.065" fill="white"/>
<path d="M100.567 46.6647C102.534 46.4894 103.813 46.4814 103.953 46.4807C103.956 46.4807 103.96 46.4807 103.964 46.4807C105.556 46.4807 107.05 47.2552 107.968 48.5563C107.983 48.5774 107.996 48.5993 108.01 48.6204L127.544 27.9345L120.256 21.0545L95.3978 47.3767C97.296 47.021 99.0633 46.7992 100.567 46.6647" fill="white"/>
<path d="M64.5433 95.1491C69.1404 99.064 72.3266 104.496 72.307 112.036C72.307 112.036 60.296 115.807 48.4153 108.305C61.2902 119.065 75.7266 114.532 75.7266 114.532C75.7506 105.236 70.9019 99.1433 64.5433 95.1491" fill="white"/>
<path d="M66.4436 73.4145C70.0778 76.6167 72.5723 81.0188 72.5563 87.0705C72.5563 87.0705 62.885 90.1076 53.2145 84.197C63.8792 93.3651 75.976 89.5672 75.976 89.5672C75.9963 81.7578 71.837 76.696 66.4436 73.4145" fill="white"/>
<path d="M72.8182 66.0712C72.8182 66.0712 65.5993 68.3359 58.2502 64.0864C66.5935 71.5941 76.2378 68.5679 76.2378 68.5679C76.2538 62.3134 72.8066 58.3374 68.4211 55.8072C71.0509 58.2581 72.8291 61.5759 72.8182 66.0712Z" fill="white"/>
<path d="M72.3069 112.036C72.3265 104.496 69.1403 99.0639 64.5433 95.149C52.4894 87.5773 35.0087 87.5482 35.0087 87.5482C38.6065 97.581 43.392 104.108 48.4153 108.305C60.296 115.807 72.3069 112.036 72.3069 112.036Z" fill="white"/>
<path d="M72.5563 87.0706C72.5723 81.0189 70.0778 76.6168 66.4436 73.4146C56.5403 67.3899 42.4756 67.3666 42.4756 67.3666C45.3658 75.4262 49.1876 80.736 53.2145 84.1971C62.885 90.1077 72.5563 87.0706 72.5563 87.0706" fill="white"/>
<path d="M58.2502 64.0865C65.5993 68.3359 72.8182 66.0712 72.8182 66.0712C72.8291 61.5759 71.0509 58.2581 68.4211 55.8072C60.7854 51.4007 50.304 51.3818 50.304 51.3818C52.4531 57.376 55.2684 61.4036 58.2502 64.0865" fill="white"/>
<path d="M116.332 87.672C105.576 115.473 85.384 114.661 78.56 113.499C78.5477 113.839 78.5397 114.183 78.5404 114.532C78.5404 114.532 106.441 123.293 119.258 87.5484C119.258 87.5484 118.163 87.5506 116.332 87.672" fill="white"/>
<path d="M78.3149 88.5098C78.2982 88.8567 78.2902 89.2087 78.2917 89.5672C78.2917 89.5672 101.247 96.7752 111.791 67.3665C111.791 67.3665 110.676 67.3687 108.853 67.5054C100.185 89.5236 84.2662 89.413 78.3149 88.5098" fill="white"/>
<path d="M78.0676 67.4727C78.0444 67.8305 78.0291 68.1934 78.0298 68.5679C78.0298 68.5679 95.8 74.1476 103.964 51.3817C103.964 51.3817 102.815 51.3839 101.004 51.5461C94.5076 67.5628 82.9927 68.0763 78.0676 67.4727Z" fill="white"/>
<path d="M116.332 87.672C107.134 88.2814 79.3637 91.9112 78.5601 113.499C85.384 114.661 105.576 115.473 116.332 87.672Z" fill="white"/>
<path d="M78.3148 88.5098C84.2661 89.4131 100.185 89.5237 108.853 67.5055C100.836 68.1084 79.1265 71.3273 78.3148 88.5098Z" fill="white"/>
<path d="M78.0676 67.4727C82.9927 68.0763 94.5076 67.5629 101.004 51.5462C94.3825 52.1374 78.8865 54.8713 78.0676 67.4727Z" fill="white"/>
<path d="M77.1891 23.76C77.1891 23.76 77.075 23.9345 76.8808 24.2617C89.232 42.3687 75.8321 53.4691 75.8321 53.4691C75.5942 53.3156 75.3651 53.1585 75.1426 52.9992C75.8291 53.6654 76.6161 54.2923 77.5128 54.8705C77.5128 54.8705 91.8581 42.9898 77.1891 23.76" fill="white"/>
<path d="M76.8807 24.2617C75.0335 27.338 65.7847 43.9104 75.1425 52.9992C75.3651 53.1585 75.5942 53.3155 75.832 53.469C75.832 53.469 89.232 42.3686 76.8807 24.2617" fill="white"/>
</svg>
