<svg width="152" height="152" viewBox="0 0 152 152" fill="none" xmlns="http://www.w3.org/2000/svg">
<path d="M75.6222 10.0233C58.1 10.0233 41.6265 16.8465 29.2367 29.2364C16.8472 41.6262 10.0239 58.0996 10.0239 75.6211C10.0239 93.144 16.8472 109.617 29.2367 122.007C41.6265 134.396 58.1 141.22 75.6222 141.22C93.1444 141.22 109.617 134.396 122.007 122.007C134.397 109.617 141.221 93.144 141.221 75.6211C141.221 58.0996 134.397 41.6262 122.007 29.2364C109.617 16.8465 93.1444 10.0233 75.6222 10.0233V10.0233ZM75.6222 151.244C65.4156 151.244 55.5116 149.244 46.1851 145.299C37.1793 141.489 29.0927 136.038 22.1492 129.095C15.206 122.151 9.75396 114.064 5.94487 105.059C2.00058 95.7323 0 85.8283 0 75.6211C0 65.4145 2.00058 55.5105 5.94487 46.1847C9.75396 37.1789 15.206 29.0924 22.1492 22.1491C29.0927 15.2058 37.1793 9.75345 46.1851 5.944C55.5116 2 65.4156 -8.85506e-07 75.6222 -8.85506e-07C85.8287 -8.85506e-07 95.7327 2 105.059 5.944C114.064 9.75345 122.152 15.2058 129.095 22.1491C136.038 29.0924 141.49 37.1789 145.299 46.1847C149.244 55.5105 151.244 65.4145 151.244 75.6211C151.244 85.8283 149.244 95.7323 145.299 105.059C141.49 114.064 136.038 122.151 129.095 129.095C122.152 136.038 114.064 141.489 105.059 145.299C95.7327 149.244 85.8287 151.244 75.6222 151.244" fill="white"/>
<path d="M99.2971 51.5513L100.791 53.1463C101.313 53.7033 101.603 54.4386 101.603 55.2023V55.4081L127.544 27.9375L120.256 21.0553L95.7262 47.0321L98.532 50.0277C98.9313 50.4539 99.1953 50.9841 99.2971 51.5513" fill="white"/>
<path d="M23.7009 123.306L30.9888 130.188L49.6404 110.436V95.8357L23.7009 123.306Z" fill="white"/>
<path d="M87.092 24.829C87.0944 24.829 87.0975 24.8298 87.1006 24.8298C87.1029 24.8298 87.1052 24.8298 87.1076 24.8298L87.092 24.829" fill="white"/>
<path d="M96.3371 52.7906V113.746C96.3371 117.364 86.0513 120.298 73.3633 120.298C64.2382 120.298 56.3553 118.781 52.6476 116.583V116.864C52.6476 120.483 62.9335 123.417 75.6222 123.417C88.3102 123.417 98.596 120.483 98.596 116.864V55.2023L96.3371 52.7906Z" fill="white"/>
<path d="M84.7567 39.7222V36.7244H86.8251C88.1393 36.7244 89.2047 35.659 89.2047 34.3448V30.2066C89.2047 28.9331 88.204 27.896 86.9458 27.8328C86.9058 27.8313 86.8658 27.827 86.8251 27.827H64.4193C63.1051 27.827 62.0396 28.8924 62.0396 30.2066V33.6V34.3448C62.0396 35.5942 63.0033 36.6175 64.2287 36.715C64.292 36.7201 64.3553 36.7244 64.4193 36.7244H66.4876V40.4437H66.4738L52.6476 55.2022V116.583C56.3553 118.781 64.2382 120.298 73.3633 120.298C86.0513 120.298 96.3371 117.364 96.3371 113.746V52.7906V52.0837L84.7567 39.7222" fill="white"/>
</svg>
