<?xml version="1.0" encoding="iso-8859-1"?>
<!-- Generator: Adobe Illustrator 18.0.0, SVG Export Plug-In . SVG Version: 6.00 Build 0)  -->
<!DOCTYPE svg PUBLIC "-//W3C//DTD SVG 1.1//EN" "http://www.w3.org/Graphics/SVG/1.1/DTD/svg11.dtd">
<svg version="1.1" id="Capa_1" xmlns="http://www.w3.org/2000/svg" xmlns:xlink="http://www.w3.org/1999/xlink" x="0px" y="0px"
	 viewBox="0 0 56.972 56.972" style="enable-background:new 0 0 56.972 56.972;" xml:space="preserve">
<g>
	<path style="fill:#1D1D1B;" d="M50.542,54.531c-0.213,0.004-0.427,0.012-0.641,0.016c0.498-17.266,0.727-34.576,0.752-51.85
		c0.001-0.46-0.702-0.459-0.714,0c-0.437,17.272-0.672,34.587-0.636,51.865c-13.783,0.273-27.665,0.933-41.409,1.931
		c0.068-0.012,0.135-0.038,0.194-0.085c0.354-0.285,0.344-0.308,0.295-0.774c-0.017-0.159-0.119-0.286-0.29-0.29
		c-0.074-0.002-0.148-0.003-0.222-0.005c-0.042-0.001-0.068,0.026-0.101,0.042c-0.052-3.528,0.45-24.993,0.43-26.733
		C8.097,19.601,7.853,10.505,6.928,1.5c7.036-1.784,14.527-0.045,21.667,0.309c7.144,0.355,14.309,0.318,21.458,0.23
		c0.466-0.006,0.467-0.725,0-0.724c-7.805,0.003-15.61,0.072-23.405-0.394C20.035,0.525,13.338-0.946,6.872,0.937
		C6.85,0.729,6.832,0.521,6.809,0.313c-0.027-0.246-0.403-0.259-0.394,0c0.008,0.249,0.019,0.499,0.028,0.748
		c-0.054,0.017-0.108,0.03-0.162,0.047C5.956,1.214,6.09,1.717,6.423,1.624C6.437,1.62,6.45,1.617,6.464,1.614
		c0.374,10.319,0.98,20.613,1.01,30.945c0.015,5.217-0.061,10.433-0.223,15.647c-0.066,2.12-1.347,6.569,0.356,8.201
		c0.063,0.061,0.136,0.086,0.21,0.091c-0.086,0.006-0.173,0.011-0.259,0.017c-0.29,0.021-0.298,0.461,0,0.457
		c14.298-0.197,28.718-0.766,42.984-1.745C50.984,55.196,50.995,54.523,50.542,54.531z"/>
	<path style="fill:#1D1D1B;" d="M20.379,4.872c-0.035-0.29-0.348-0.453-0.582-0.241c-0.674,0.611-1.346,1.224-2.017,1.838
		c-0.839,0.768-0.885,1.15-1.774,0.494c-1.122-0.829-2.006-1.864-3.209-2.628c-0.224-0.142-0.514,0.044-0.517,0.297
		c-0.029,2.52-0.065,5.043,0,7.563c0.008,0.327,0.49,0.325,0.506,0c0.115-2.302,0.143-4.609,0.171-6.914
		c1.252,0.864,2.345,1.866,3.312,3.059c0.121,0.149,0.362,0.115,0.488,0c1.01-0.923,2.02-1.846,3.027-2.773
		c0.302,2.426,0.624,4.915,1.351,7.239c0.114,0.365,0.613,0.207,0.559-0.154C21.309,10.045,20.696,7.493,20.379,4.872z"/>
	<path style="fill:#1D1D1B;" d="M26.565,12.061c-0.681,0.213-1.92,0.715-2.478,0.175c-0.351-0.34-0.292-1.628-0.352-2.101
		c-0.006-0.045-0.012-0.089-0.018-0.134c0.893,0.121,1.979,0.045,2.528-0.582c0.139-0.158,0.001-0.366-0.195-0.335
		c-0.449,0.071-0.845,0.33-1.299,0.417c-0.367,0.07-0.733,0.059-1.098,0.017c-0.143-1.126-0.285-2.253-0.448-3.376
		c-0.004-0.026-0.025-0.036-0.036-0.055c1.125-0.223,2.215-0.182,3.38-0.082c0.313,0.027,0.37-0.466,0.073-0.542
		c-1.381-0.354-2.862-0.1-4.175,0.385c-0.23,0.085-0.14,0.444,0.103,0.373c0.076-0.022,0.149-0.029,0.224-0.048
		c-0.001,0.011-0.012,0.017-0.011,0.029c0.081,1.085,0.175,2.17,0.277,3.253c-0.198,0.036-0.263,0.336-0.029,0.404
		c0.022,0.006,0.048,0.011,0.07,0.017c0.086,0.906,0.176,1.812,0.268,2.718c0.015,0.15,0.095,0.288,0.25,0.328
		c1.1,0.289,2.196,0.258,3.173-0.369C27.02,12.393,26.867,11.966,26.565,12.061z"/>
	<path style="fill:#1D1D1B;" d="M35.742,6.696c-0.034,1.804-0.069,3.608-0.104,5.412c-1.599-1.971-3.197-3.941-4.796-5.912
		c-0.194-0.239-0.581-0.033-0.582,0.241c-0.014,2.252-0.008,4.504,0.033,6.756c0.006,0.32,0.484,0.319,0.496,0
		c0.07-1.94,0.104-3.88,0.132-5.821c1.6,1.978,3.2,3.955,4.8,5.933c0.199,0.246,0.586,0.031,0.592-0.245
		c0.044-2.122,0.09-4.243,0.136-6.364C36.458,6.242,35.75,6.241,35.742,6.696z"/>
	<path style="fill:#1D1D1B;" d="M43.223,5.699c-0.144-0.284-0.53-0.072-0.482,0.203c0.231,1.333,0.796,2.541,0.611,3.931
		c-0.178,1.344-1.356,3.143-3,2.621c-1.978-0.628-1.652-3.552-1.356-5.107c0.062-0.323-0.425-0.465-0.498-0.137
		c-0.453,2.025-0.696,5.949,2.318,6.02C44.717,13.322,44.399,8.019,43.223,5.699z"/>
	<path style="fill:#1D1D1B;" d="M25.054,16.399c-4.329,0.263-8.683,0.739-12.983,1.297c-0.2,0.026-0.213,0.335,0,0.323
		c4.323-0.225,8.685-0.544,12.983-1.065C25.399,16.913,25.418,16.377,25.054,16.399z"/>
	<path style="fill:#1D1D1B;" d="M25.056,20.899c-4.164-0.045-8.336,0.015-12.5,0.077c-0.281,0.004-0.281,0.432,0,0.436
		c4.164,0.062,8.336,0.123,12.5,0.077C25.436,21.485,25.436,20.903,25.056,20.899z"/>
	<path style="fill:#1D1D1B;" d="M24.056,24.973c-3.3-0.35-7.24-0.348-10.528,0.12c-0.101,0.014-0.101,0.189,0,0.203
		c3.292,0.468,7.23,0.469,10.528,0.12C24.34,25.385,24.341,25.003,24.056,24.973z"/>
	<path style="fill:#1D1D1B;" d="M25.024,29.524c-3.938-0.07-8.017,0.497-11.938,0.884c-0.256,0.025-0.266,0.42,0,0.408
		c3.954-0.18,8.091-0.211,11.998-0.846C25.343,29.928,25.271,29.529,25.024,29.524z"/>
	<path style="fill:#1D1D1B;" d="M25.558,34.004c-4.309-0.083-8.713,0.521-13.012,0.836c-0.252,0.018-0.257,0.41,0,0.397
		c4.324-0.22,8.786-0.172,13.072-0.788C25.878,34.412,25.805,34.008,25.558,34.004z"/>
	<path style="fill:#1D1D1B;" d="M24.542,38.184c-3.795-0.077-7.684,0.33-11.472,0.595c-0.248,0.017-0.253,0.398,0,0.39
		c3.794-0.11,7.703-0.09,11.472-0.539C24.82,38.597,24.837,38.19,24.542,38.184z"/>
	<path style="fill:#1D1D1B;" d="M25.046,43.374c-4.193,0.398-8.271,0.784-12.492,0.67c-0.239-0.006-0.235,0.355,0,0.369
		c4.148,0.257,8.463,0.231,12.559-0.542C25.39,43.818,25.331,43.346,25.046,43.374z"/>
	<path style="fill:#1D1D1B;" d="M25.528,48.985c-4.092-0.022-8.438,0.302-12.491,0.876c-0.163,0.023-0.117,0.277,0.038,0.28
		c4.076,0.079,8.409-0.134,12.454-0.65C25.841,49.452,25.864,48.987,25.528,48.985z"/>
	<path style="fill:#1D1D1B;" d="M43.55,18.271c-4.492,0.03-9.016,0.371-13.497,0.686c-0.23,0.016-0.236,0.365,0,0.362
		c4.488-0.066,9.022-0.111,13.497-0.461C43.922,18.829,43.933,18.269,43.55,18.271z"/>
	<path style="fill:#1D1D1B;" d="M43.076,21.099c-3.805-0.424-7.835,0.173-11.539,1.048c-0.248,0.059-0.142,0.431,0.105,0.38
		c3.844-0.801,7.54-0.88,11.434-0.988C43.364,21.53,43.351,21.13,43.076,21.099z"/>
	<path style="fill:#1D1D1B;" d="M42.563,25.574c-4.079-0.267-8.493-0.075-12.522,0.635c-0.105,0.018-0.078,0.184,0.025,0.183
		c4.151-0.04,8.347-0.185,12.497-0.33C42.879,26.052,42.876,25.595,42.563,25.574z"/>
	<path style="fill:#1D1D1B;" d="M41.556,29.992c-3.551-0.347-7.442-0.203-11,0.077c-0.16,0.013-0.161,0.237,0,0.25
		c3.556,0.28,7.448,0.424,11,0.077C41.815,30.371,41.816,30.017,41.556,29.992z"/>
	<path style="fill:#1D1D1B;" d="M42.053,34.887c-4.154-0.009-8.352,0.396-12.496,0.679c-0.208,0.014-0.212,0.333,0,0.327
		c4.149-0.112,8.364-0.108,12.496-0.51C42.364,35.352,42.378,34.887,42.053,34.887z"/>
	<path style="fill:#1D1D1B;" d="M42.565,38.264c-3.774-0.172-7.757,0.126-11.521,0.46c-0.182,0.016-0.189,0.284,0,0.288
		c3.776,0.08,7.768,0.106,11.521-0.319C42.834,38.662,42.847,38.277,42.565,38.264z"/>
	<path style="fill:#1D1D1B;" d="M43.578,43.158c-4.135-0.52-8.508,0.026-12.568,0.869c-0.212,0.044-0.12,0.359,0.089,0.322
		c4.211-0.737,8.236-0.724,12.479-0.745C43.873,43.603,43.855,43.193,43.578,43.158z"/>
	<path style="fill:#1D1D1B;" d="M41.556,48.445c-3.522,0.234-6.965,0.509-10.499,0.579c-0.209,0.004-0.197,0.293,0,0.316
		c3.385,0.408,7.23,0.34,10.565-0.409C41.891,48.871,41.837,48.426,41.556,48.445z"/>
</g>
<g>
</g>
<g>
</g>
<g>
</g>
<g>
</g>
<g>
</g>
<g>
</g>
<g>
</g>
<g>
</g>
<g>
</g>
<g>
</g>
<g>
</g>
<g>
</g>
<g>
</g>
<g>
</g>
<g>
</g>
</svg>
