<svg width="154" height="140" viewBox="0 0 154 140" fill="none" xmlns="http://www.w3.org/2000/svg">
<g clip-path="url(#clip0)">
<path d="M127.796 85.0177C127.91 83.3079 127.929 81.5292 127.848 79.6797C127.412 69.8026 122.921 60.4248 118.166 50.496C117.348 48.7886 116.515 47.0436 115.689 45.2722H116.239C119.641 45.2722 122.409 42.7487 122.409 39.6468V26.7802C122.409 23.6783 119.641 21.1548 116.239 21.1548H95.0471C88.786 21.1548 83.5309 25.1434 82.1685 30.4793H71.8903C70.2343 30.4793 68.8913 31.7034 68.8913 33.2136C68.8913 34.7238 70.2343 35.948 71.8903 35.948H82.1685C83.2703 40.2629 86.9174 43.6948 91.5847 44.8503L98.046 71.1189C100.088 79.4063 96.5378 84.3041 93.1997 86.9537C88.0237 91.0613 79.8473 92.368 73.3143 90.131C67.648 88.1907 64.0465 83.9158 63.1732 78.0938L62.9249 76.4397H65.4638C67.1198 76.4397 68.4628 75.2156 68.4628 73.7054V66.1481C68.4628 61.9372 65.3972 58.3677 61.1944 57.1949V12.5262C61.1944 11.016 59.8515 9.79181 58.1954 9.79181H6.65416C4.99812 9.79181 3.65517 11.016 3.65517 12.5262V23.742C3.65517 25.2522 4.99812 26.4764 6.65416 26.4764C8.31021 26.4764 9.65316 25.2522 9.65316 23.742V15.2606H20.2234V31.7177C20.2234 32.7086 20.8115 33.6222 21.7604 34.105C22.7096 34.5882 23.8708 34.5652 24.7963 34.0452L32.4206 29.7599L40.0446 34.0452C40.5263 34.3161 41.0721 34.452 41.6185 34.452C42.1217 34.452 42.6253 34.3367 43.0805 34.105C44.0294 33.6219 44.6175 32.7086 44.6175 31.7177V15.2606H55.1961V56.7864H9.65316V48.2973C9.65316 46.7871 8.31021 45.5629 6.65416 45.5629C4.99812 45.5629 3.65517 46.7871 3.65517 48.2973V59.5208V72.8233C1.26198 75.9886 0 79.6627 0 83.51V105.042C0 109.473 3.94997 113.078 8.80504 113.078H15.9807C17.4469 122.742 26.5603 130.208 37.5555 130.208C48.5549 130.208 57.6715 122.742 59.1386 113.078H104.118C105.585 122.742 114.698 130.208 125.693 130.208C136.692 130.208 145.809 122.742 147.276 113.078H150.549C152.205 113.078 153.548 111.854 153.548 110.344C153.548 96.9847 142.177 86.0016 127.796 85.0177ZM38.6195 26.8196L33.9945 24.22C33.0291 23.6775 31.8121 23.6778 30.8467 24.22L26.2214 26.8199V15.2606H38.6195V26.8196ZM109.487 26.6235H116.24C116.326 26.6235 116.412 26.7012 116.412 26.7802V39.6471C116.412 39.7261 116.326 39.8038 116.24 39.8038H109.487C107.575 35.4616 107.575 30.9605 109.487 26.6235ZM94.4179 39.7772C94.3654 39.7718 94.3126 39.7668 94.2595 39.7638C90.7162 39.4122 87.9358 36.7164 87.8249 33.4176C87.8303 33.3501 87.8363 33.2826 87.8363 33.2136C87.8363 33.1447 87.8303 33.0772 87.8249 33.0097C87.9436 29.47 91.1367 26.6235 95.0471 26.6235H103.126C101.665 30.984 101.665 35.4402 103.127 39.8038H95.0471C94.8347 39.8038 94.6254 39.7936 94.4179 39.7772ZM9.65316 62.2549H58.1954C60.5496 62.2549 62.4648 64.0011 62.4648 66.1476V70.9704H9.65316V62.2549ZM37.5555 124.739C29.8754 124.739 23.462 119.713 22.0567 113.078H53.0627C51.6564 119.713 45.2395 124.739 37.5555 124.739ZM15.9169 107.61C17.3831 97.9103 26.5249 90.4143 37.5555 90.4143C48.59 90.4143 57.7354 97.9101 59.2022 107.61H15.9169ZM95.0809 107.61H65.2491C63.7484 94.8861 51.9018 84.9456 37.5555 84.9456C23.2131 84.9456 11.3701 94.8861 9.86998 107.61H8.80534C7.25756 107.61 5.99828 106.458 5.99828 105.042V83.51C5.99828 80.9881 6.76573 78.569 8.22504 76.4395H56.8711L57.2304 78.8348C58.3994 86.6261 63.4932 92.6092 71.2057 95.2503C74.0496 96.2243 77.0855 96.696 80.1259 96.696C86.3203 96.696 92.5282 94.7368 97.1379 91.0785C103.597 85.9524 105.998 78.438 103.899 69.921L97.8358 45.2725H109.183C110.34 47.813 111.52 50.2844 112.67 52.6846C117.389 62.5387 121.465 71.0492 121.855 79.8985C122.262 89.2161 119.94 96.34 114.953 101.072C110.381 105.41 103.695 107.61 95.0809 107.61ZM125.693 124.739C118.012 124.739 111.599 119.713 110.194 113.078H141.2C139.794 119.713 133.377 124.739 125.693 124.739ZM115.821 107.61C117.064 106.784 118.218 105.867 119.277 104.861C123.224 101.117 125.823 96.2938 127.059 90.4575C137.475 91.0468 145.94 98.3134 147.345 107.609H115.821V107.61Z" fill="white"/>
<path d="M6.65414 38.7614C8.31019 38.7614 9.65314 37.5296 9.65314 36.0194C9.65314 34.5092 8.31019 33.285 6.65414 33.285C4.9981 33.285 3.65515 34.5092 3.65515 36.0194V36.035C3.65515 37.5452 4.9981 38.7614 6.65414 38.7614Z" fill="white"/>
</g>
<defs>
<clipPath id="clip0">
<rect width="153.548" height="140" fill="white"/>
</clipPath>
</defs>
</svg>
