<svg width="635" height="635" viewBox="0 0 635 635" fill="none" xmlns="http://www.w3.org/2000/svg">
<g clip-path="url(#clip0)">
<path d="M575.306 301.805C574.594 294.358 568.699 288.463 561.252 287.751C557.08 287.353 458.404 278.647 400.943 336.109C388.483 348.569 379.139 362.967 372.141 377.918C360.618 330.734 340.122 291.587 311.983 263.449C277.302 228.768 225.9 205.694 163.336 196.723C116.784 190.047 80.535 193.382 79.015 193.529C71.568 194.241 65.673 200.136 64.961 207.583C64.815 209.103 61.48 245.351 68.155 291.904C77.126 354.468 100.199 405.871 134.881 440.551C169.562 475.232 220.964 498.306 283.528 507.277C306.569 510.581 327.081 511.432 342.111 511.432C355.731 511.431 375.58 511.165 384.718 511.165C416.676 511.165 483.562 505.501 526.948 462.113C584.409 404.654 575.705 305.979 575.306 301.805ZM234.469 340.963C228.374 334.868 218.49 334.868 212.393 340.963C206.297 347.058 206.297 356.942 212.393 363.039L329.315 479.96C284.263 478.443 206.545 468.066 156.956 418.477C97.858 359.379 94.508 259.814 95.387 223.937C131.265 223.001 230.664 226.282 289.908 285.526C339.354 334.972 349.773 412.737 351.343 457.837L234.469 340.963ZM504.873 440.039C477.357 467.555 435.958 476.362 406.209 478.924L474.983 410.149C481.079 404.054 481.079 394.17 474.983 388.073C468.888 381.978 459.004 381.978 452.907 388.073L384.072 456.908C386.595 427.197 395.377 385.824 423.017 358.184C458.828 322.372 518.149 318.24 544.714 318.341C544.81 344.907 540.678 404.233 504.873 440.039Z" fill="white"/>
</g>
<circle cx="317.5" cy="317.5" r="296.5" stroke="white" stroke-width="42"/>
<defs>
<clipPath id="clip0">
<rect width="512" height="512" fill="white" transform="translate(64 96)"/>
</clipPath>
</defs>
</svg>
