<svg width="635" height="635" viewBox="0 0 635 635" fill="none" xmlns="http://www.w3.org/2000/svg">
<g clip-path="url(#clip0)">
<path d="M568.306 297.805C567.594 290.358 561.699 284.463 554.252 283.751C550.08 283.353 451.404 274.647 393.943 332.109C381.483 344.569 372.139 358.967 365.141 373.918C353.618 326.734 333.122 287.587 304.983 259.449C270.302 224.768 218.9 201.694 156.336 192.723C109.784 186.047 73.535 189.382 72.015 189.529C64.568 190.241 58.673 196.136 57.961 203.583C57.815 205.103 54.48 241.351 61.155 287.904C70.126 350.468 93.199 401.871 127.881 436.551C162.562 471.232 213.964 494.306 276.528 503.277C299.569 506.581 320.081 507.432 335.111 507.432C348.731 507.431 368.58 507.165 377.718 507.165C409.676 507.165 476.562 501.501 519.948 458.113C577.409 400.654 568.705 301.979 568.306 297.805ZM227.469 336.963C221.374 330.868 211.49 330.868 205.393 336.963C199.297 343.058 199.297 352.942 205.393 359.039L322.315 475.96C277.263 474.443 199.545 464.066 149.956 414.477C90.858 355.379 87.508 255.814 88.387 219.937C124.265 219.001 223.664 222.282 282.908 281.526C332.354 330.972 342.773 408.737 344.343 453.837L227.469 336.963ZM497.873 436.039C470.357 463.555 428.958 472.362 399.209 474.924L467.983 406.149C474.079 400.054 474.079 390.17 467.983 384.073C461.888 377.978 452.004 377.978 445.907 384.073L377.072 452.908C379.595 423.197 388.377 381.824 416.017 354.184C451.828 318.372 511.149 314.24 537.714 314.341C537.81 340.907 533.678 400.233 497.873 436.039Z" fill="white"/>
</g>
<circle cx="317.5" cy="317.5" r="309" stroke="white" stroke-width="17"/>
<defs>
<clipPath id="clip0">
<rect width="512" height="512" fill="white" transform="translate(57 92)"/>
</clipPath>
</defs>
</svg>
